<svg xmlns="http://www.w3.org/2000/svg" width="28" height="28" viewBox="0 0 28 28">
  <g id="ic_google_28_01" transform="translate(0.045)">
    <g id="그룹_1661" data-name="그룹 1661" transform="translate(6.406 5.382)">
      <path id="패스_4664" data-name="패스 4664" d="M700.994,709.667a10.5,10.5,0,0,0-.166-1.871h-8.617v3.539h4.924a4.21,4.21,0,0,1-1.826,2.761v2.3h2.957a8.923,8.923,0,0,0,2.728-6.725Z" transform="translate(-683.062 -700.309)" fill="#3e82f1"/>
      <path id="패스_4665" data-name="패스 4665" d="M605.529,754.673a8.735,8.735,0,0,0,6.055-2.217l-2.957-2.3a5.52,5.52,0,0,1-8.218-2.9h-3.057v2.371a9.146,9.146,0,0,0,8.176,5.04Z" transform="translate(-596.38 -736.375)" fill="#32a753"/>
      <path id="패스_4666" data-name="패스 4666" d="M590.092,685.271a5.408,5.408,0,0,1,0-3.477v-2.37h-3.057a9.161,9.161,0,0,0,0,8.218l3.057-2.371Z" transform="translate(-586.062 -674.384)" fill="#f9bb00"/>
      <path id="패스_4667" data-name="패스 4667" d="M605.529,624.584a4.942,4.942,0,0,1,3.5,1.368l2.624-2.624a8.793,8.793,0,0,0-6.122-2.383,9.146,9.146,0,0,0-8.176,5.04l3.057,2.37a5.453,5.453,0,0,1,5.12-3.772Z" transform="translate(-596.38 -620.945)" fill="#e74133"/>
    </g>
    <rect id="사각형_1271" data-name="사각형 1271" width="28" height="28" transform="translate(-0.045)" fill="none"/>
  </g>
</svg>
