<svg xmlns="http://www.w3.org/2000/svg" width="28" height="28" viewBox="0 0 28 28">
  <g id="ic_kakao_28_01" transform="translate(0.045)">
    <rect id="사각형_1273" data-name="사각형 1273" width="28" height="28" transform="translate(-0.045)" fill="none"/>
    <path id="패스_5220" data-name="패스 5220" d="M-275.859,3235.545h0c-4.83,0-8.746,3.087-8.746,6.9a6.723,6.723,0,0,0,4.1,5.843c-.134.462-.861,2.972-.89,3.169,0,0-.017.148.078.2a.263.263,0,0,0,.209.013c.275-.039,3.191-2.087,3.7-2.442a11.059,11.059,0,0,0,1.553.108c4.83,0,8.746-3.087,8.746-6.9S-271.029,3235.545-275.859,3235.545Z" transform="translate(291.011 -3229.087)" fill="#181602" stroke="rgba(0,0,0,0)" stroke-width="1"/>
  </g>
</svg>
