<svg xmlns="http://www.w3.org/2000/svg" width="60" height="30" viewBox="0 0 60 30">
  <g id="logo_babil_01" transform="translate(-194 -139)">
    <rect id="사각형_1368" data-name="사각형 1368" width="60" height="30" transform="translate(194 139)" fill="none"/>
    <path id="패스_5224" data-name="패스 5224" d="M-1571.589-763.564a24.176,24.176,0,0,1-1.875,2.116c-1.135,1.261-2.249,2.541-3.384,3.8a23.223,23.223,0,0,0-1.768,2.038,7.038,7.038,0,0,0-1.282,4.115v2.234a1.652,1.652,0,0,0,.431,1.442,1.29,1.29,0,0,0,1.607,0,12.533,12.533,0,0,0,1.265-1.4c.615-.705,1.241-1.406,1.854-2.116,2.244-2.6,4.531-5.167,6.786-7.76q1.075-1.234,2.161-2.469a6.862,6.862,0,0,1,1.3-1.344c1.24-.8,2.547-.236,3.567.65a5.994,5.994,0,0,1,.106,8.683,4.226,4.226,0,0,1-1.125.819c-.793.4-1.638.589-1.685,1.657-.06,1.458,1.6,1.663,2.508,2.391a5.637,5.637,0,0,1,2.149,4.742,6.348,6.348,0,0,1-.44,1.764,5.746,5.746,0,0,1-4.256,3.392,20.574,20.574,0,0,1-3.684.1h-8.466c-.343,0-1.121.144-1.4-.068-.149-.113-.127-.315-.127-.48v-4.742a5.411,5.411,0,0,0-.078-1.724,1.258,1.258,0,0,0-1.372-.783c-1.071.031-1.058,1.233-1.058,2v5.487c0,.812-.132,1.727.509,2.352a2.506,2.506,0,0,0,1.881.47h9.876a31.726,31.726,0,0,0,3.723-.05,8.679,8.679,0,0,0,5.25-2.654,8.088,8.088,0,0,0,.565-10.268,6.327,6.327,0,0,0-2.131-1.96,19.992,19.992,0,0,1,1.528-1.332,7.733,7.733,0,0,0,1.921-3.488,8.2,8.2,0,0,0-3.684-9.061,5.514,5.514,0,0,0-3.919-.868c-1.77.378-2.8,1.988-3.925,3.266-2.007,2.279-3.992,4.585-6,6.859-.642.73-1.278,1.465-1.921,2.195a6.912,6.912,0,0,0-1.052,1.254h-.039c.215-1.463,1.371-2.559,2.306-3.606,1.783-2,3.552-4.006,5.343-6,.457-.508.909-1.019,1.365-1.529a3.372,3.372,0,0,0,.762-.98,1.439,1.439,0,0,0,.061-.51c-.007-1.529-1.91-1.215-2.939-1.215a7.3,7.3,0,0,0-5.056,1.579c-.748.655-1.265,1.533-2,2.183v-1.881a2.3,2.3,0,0,0-.2-1.372,1.281,1.281,0,0,0-2.125.117,4.1,4.1,0,0,0-.14,1.842v3.449a5.7,5.7,0,0,0,.053,1.646,1.236,1.236,0,0,0,1.436.811,1.8,1.8,0,0,0,1.042-.772c.369-.431.747-.861,1.114-1.293a16.016,16.016,0,0,1,2.783-2.938A5.866,5.866,0,0,1-1571.589-763.564Z" transform="translate(1774.433 905.177)" fill="#fff"/>
    <g id="그룹_1930" data-name="그룹 1930" transform="translate(221 154)">
      <path id="패스_5225" data-name="패스 5225" d="M-329.285,2368.739c-.175.065-.629,0-.89.072l-.16-.008v.037h.079a.184.184,0,0,0-.1.115c0,.006,0,.011,0,.017l-.008-.131V2369a9.183,9.183,0,0,0,0,1.976v4.461h-3.111v-11.621c0-1.137-.375-3.083,1.2-3.309l.043-.006c.084-.01.168-.018.252-.022h.148c.052,0,.1.005.157.012l.037,0v.022h.112l-.017-.006a1.548,1.548,0,0,1,.34.1c.024.01.048.022.071.034s.057.03.085.047a1.178,1.178,0,0,1,.121.084,1.873,1.873,0,0,1,.562,1.537v2.437a5.608,5.608,0,0,0,0,1.113v.161h.037v.038h.171a3.818,3.818,0,0,0,.616.022v.015h.107a1.137,1.137,0,0,1,.857,1.012A1.446,1.446,0,0,1-329.285,2368.739Z" transform="translate(343.988 -2360.48)" fill="#fff"/>
      <path id="패스_5226" data-name="패스 5226" d="M123.239,2363.724v4.461h-3.186v-5.173c0-.7-.15-1.556.412-2.093a1.641,1.641,0,0,1,.975-.419h.385c.034,0,.069.007.1.013v.024h.112l-.032-.011a1.81,1.81,0,0,1,.352.105,1.359,1.359,0,0,1,.141.066,1.328,1.328,0,0,1,.681.813A8.654,8.654,0,0,1,123.239,2363.724Z" transform="translate(-92.566 -2360.499)" fill="#fff"/>
      <path id="패스_5227" data-name="패스 5227" d="M-160.789,2369.971a1.274,1.274,0,0,0-1.1-1.1h0c-.04-.007-.081-.013-.122-.017s-.1-.009-.147-.011l.035,0h-.3v0a2.117,2.117,0,0,0-.23.027l.043.014h-.112c-.034.007-.069.015-.1.025a1.355,1.355,0,0,0-.4.182,1.1,1.1,0,0,0-.338.356c-.086.146-.094.479-.186.658h0l.018.091h-.037v-.058a.188.188,0,0,1-.081.073.342.342,0,0,1-.048.017l.129.005h-.146a3.375,3.375,0,0,1-.791,0h-2.062a2.183,2.183,0,0,0-.016-.225h-.021v-.113l.008.024c-.008-.049-.019-.1-.031-.145h0a1.218,1.218,0,0,0-.355-.617,1.294,1.294,0,0,0-.494-.262h0a1.747,1.747,0,0,0-.2-.046l.1.033h-.112v-.035a1.727,1.727,0,0,0-1.555.449c-.557.674-.319,1.955-.319,2.772,0,.738-.017,1.477.034,2.212a2.08,2.08,0,0,0,.353,1.237c.55.665,1.643.562,2.424.562h6.185v-4.049A16.517,16.517,0,0,0-160.789,2369.971Zm-2.951,3.824h-2.849v-.038h.675l-.765-.06-.06-.39v-.937h-.037l.037,1.162h-.037v-1.2h2.062l.937.037A4.3,4.3,0,0,1-163.74,2373.794Z" transform="translate(186.428 -2368.508)" fill="#fff"/>
      <path id="패스_5228" data-name="패스 5228" d="M-603.906,2372.567a1.644,1.644,0,0,0-2.73-.3,2.462,2.462,0,0,0-.246,1.35v2.1h-2.7v-2.287c0-.637-.085-1.3-.75-1.6a2.083,2.083,0,0,0-.862-.126,1.644,1.644,0,0,0-.825.191c-.937.541-.637,2.051-.637,2.958v7.423c0,.917-.2,2.215.6,2.874a4.029,4.029,0,0,0,2.474.387h5.773V2374.1A5.3,5.3,0,0,0-603.906,2372.567Zm-2.976,10.346h-1.874c-.187,0-.548.068-.7-.06-.213-.179-.087-.915-.087-1.177V2378.3h2.662Z" transform="translate(612.7 -2371.254)" fill="#fff"/>
      <path id="패스_5229" data-name="패스 5229" d="M-141.775,2587.6a1.085,1.085,0,0,1-.96.3h-8.772c-.966,0-2.216.211-3.074-.318-1.02-.629-1.394-2.562-.375-3.374a2.443,2.443,0,0,1,1.539-.469h8.17c0-.164.055-.45-.06-.584s-.409-.091-.577-.091h-7.722c-.684,0-1.7.137-1.724-.825a2.023,2.023,0,0,1,.013-.413c.124-.637.8-.6,1.3-.6h9.6c.675,0,1.667-.127,2.137.489a1.616,1.616,0,0,1,.264,1.031v2.641h-9.934v.037h.143c-.262.068-.51.233-.24.51a.388.388,0,0,0,.137.09h0v.038h.157a3.522,3.522,0,0,0,.443,0h8.991l.081.012a.706.706,0,0,1,.184.059A1.028,1.028,0,0,1-141.775,2587.6Z" transform="translate(172.695 -2572.938)" fill="#fff"/>
    </g>
  </g>
</svg>
