<svg xmlns="http://www.w3.org/2000/svg" width="17" height="20" viewBox="0 0 17 20">
  <g id="logo_babil_04" transform="translate(-147 -51)">
    <rect id="사각형_1387" data-name="사각형 1387" width="17" height="20" transform="translate(147 51)" fill="none"/>
    <g id="그룹_2481" data-name="그룹 2481" transform="translate(-0.316)">
      <path id="패스_5224" data-name="패스 5224" d="M-1574.371-764.435a16.094,16.094,0,0,1-1.25,1.411c-.757.841-1.5,1.694-2.256,2.534a15.5,15.5,0,0,0-1.179,1.359,4.692,4.692,0,0,0-.855,2.743v1.489a1.1,1.1,0,0,0,.287.961.861.861,0,0,0,1.072,0,8.358,8.358,0,0,0,.843-.935c.41-.47.828-.937,1.236-1.411,1.5-1.735,3.021-3.445,4.524-5.173q.716-.823,1.44-1.646a4.573,4.573,0,0,1,.866-.9,1.929,1.929,0,0,1,2.378.433,4,4,0,0,1,.071,5.789,2.816,2.816,0,0,1-.75.546c-.528.268-1.092.393-1.124,1.1-.04.972,1.064,1.109,1.672,1.594a3.758,3.758,0,0,1,1.433,3.161,4.232,4.232,0,0,1-.293,1.176,3.83,3.83,0,0,1-2.838,2.261,13.713,13.713,0,0,1-2.456.064h-5.644c-.229,0-.747.1-.935-.046-.1-.075-.084-.21-.084-.32V-751.4a3.608,3.608,0,0,0-.052-1.15.839.839,0,0,0-.915-.522c-.714.021-.706.822-.706,1.332v3.658c0,.541-.088,1.151.34,1.568a1.671,1.671,0,0,0,1.254.313h6.584a21.143,21.143,0,0,0,2.482-.034,5.786,5.786,0,0,0,3.5-1.769,5.392,5.392,0,0,0,.376-6.846,4.216,4.216,0,0,0-1.421-1.306,13.316,13.316,0,0,1,1.019-.888,5.156,5.156,0,0,0,1.281-2.325,5.47,5.47,0,0,0-2.456-6.041,3.676,3.676,0,0,0-2.613-.578c-1.18.252-1.866,1.325-2.617,2.177-1.338,1.52-2.661,3.057-4,4.573-.428.486-.852.977-1.28,1.463a4.6,4.6,0,0,0-.7.836h-.026a5.006,5.006,0,0,1,1.537-2.4c1.189-1.331,2.368-2.671,3.562-4,.3-.339.606-.679.91-1.019a2.252,2.252,0,0,0,.508-.653.961.961,0,0,0,.041-.34c0-1.019-1.273-.81-1.959-.81a4.867,4.867,0,0,0-3.371,1.053c-.5.437-.844,1.022-1.333,1.456v-1.254a1.532,1.532,0,0,0-.136-.914.854.854,0,0,0-1.417.078,2.731,2.731,0,0,0-.093,1.228v2.3a3.8,3.8,0,0,0,.036,1.1.824.824,0,0,0,.957.541,1.2,1.2,0,0,0,.695-.515c.246-.287.5-.574.743-.862a10.675,10.675,0,0,1,1.855-1.959A3.91,3.91,0,0,1-1574.371-764.435Z" transform="translate(1728.25 817.177)" fill="#201f24"/>
    </g>
  </g>
</svg>
